<svg xmlns="http://www.w3.org/2000/svg" viewBox="0 0 381.53 58.12"><defs><style>.cls-1{fill:#3c3c3b;}.cls-2{fill:#77777a;}.cls-3{fill:#5a621c;}.cls-4{fill:#799900;}</style></defs><title>Recurso 2300</title><g id="Capa_2" data-name="Capa 2"><g id="Capa_2-2" data-name="Capa 2"><polygon class="cls-1" points="9.55 57.93 9.55 42.7 6.03 52.68 4.94 52.68 1.59 43.02 1.59 57.93 0 57.93 0 39.01 1.59 39.01 5.48 50.12 9.55 39.01 11.14 39.01 11.14 57.93 9.55 57.93"/><path class="cls-1" d="M29.74,57.07A4,4,0,0,1,27,58.12a4.12,4.12,0,0,1-2.78-1.05A4.5,4.5,0,0,1,23,54V39h1.51V54.14A2.42,2.42,0,0,0,27,56.72a2.35,2.35,0,0,0,2.33-2.58V39h1.55V54a4.34,4.34,0,0,1-1.1,3.07"/><path class="cls-1" d="M49,57.07a3.92,3.92,0,0,1-2.93,1,3.92,3.92,0,0,1-2.92-1c-.84-.86-1.12-1.81-1.12-3.89h1.57c0,1.46.12,2.26.75,2.85a2.36,2.36,0,0,0,1.72.6,2.42,2.42,0,0,0,1.84-.6,4.33,4.33,0,0,0,.76-3c0-2.37-.35-3.21-2-3.9l-2-.8c-2-.83-2.45-1.91-2.45-4.75a5,5,0,0,1,1.23-3.75,4,4,0,0,1,2.84-1,3.57,3.57,0,0,1,2.72,1c1,.9,1.23,2,1.23,3.68H48.7a3.85,3.85,0,0,0-.76-2.64,2.56,2.56,0,0,0-3.37-.05,3.8,3.8,0,0,0-.82,2.7c0,2.17.36,2.83,2.07,3.51l2,.83c2,.8,2.42,2.37,2.42,5,0,2-.34,3.27-1.25,4.13"/><polygon class="cls-1" points="61.85 57.93 61.85 39.01 68.37 39.01 68.37 40.39 63.35 40.39 63.35 47.74 67.64 47.74 67.64 49.15 63.35 49.15 63.35 56.5 68.37 56.5 68.37 57.93 61.85 57.93"/><path class="cls-1" d="M85.42,40.89a2.32,2.32,0,0,0-1.68-.7,2.36,2.36,0,0,0-1.75.7c-.71.91-.86,2-.86,7.56s.15,6.67.86,7.58a2.35,2.35,0,0,0,1.75.68A2.31,2.31,0,0,0,85.42,56c.75-.92.89-2,.89-7.58s-.14-6.66-.89-7.56M86.53,57a4.17,4.17,0,0,1-5.64,0c-1.21-1.27-1.3-2.74-1.3-8.55s.1-7.27,1.3-8.52a4.07,4.07,0,0,1,5.64,0c1.21,1.25,1.36,2.74,1.36,8.52s-.15,7.29-1.36,8.55"/><path class="cls-1" d="M118.76,41.08a2.33,2.33,0,0,0-1.65-.7h-2.25V56.5h2.25a2.41,2.41,0,0,0,1.65-.63c.84-1,.94-2,.94-7.43s-.1-6.45-.94-7.36m1.19,15.75a3.94,3.94,0,0,1-2.85,1.1h-3.84V39h3.84a3.88,3.88,0,0,1,2.85,1.09c1.22,1.25,1.33,2.69,1.33,8.35s-.12,7.17-1.33,8.39"/><polygon class="cls-1" points="133 57.93 133 39.01 139.57 39.01 139.57 40.39 134.55 40.39 134.55 47.74 138.86 47.74 138.86 49.15 134.55 49.15 134.55 56.5 139.57 56.5 139.57 57.93 133 57.93"/><path class="cls-1" d="M168,41.8l-1.88,9.49h3.83Zm3.23,16.13-1-5.2h-4.44l-1,5.2H163L167.28,39h1.44l4.18,18.92Z"/><path class="cls-1" d="M187,40.39h-2.13V48H187c2,0,2.56-1.35,2.56-3.79s-.6-3.86-2.56-3.86m3,17.54-2.69-8.51h-2.44v8.51h-1.54V39H187c2.27,0,4.1.8,4.1,5.24,0,2.92-.74,4.3-2.31,4.91l2.93,8.77Z"/><polygon class="cls-1" points="206.47 40.38 206.47 57.93 204.9 57.93 204.9 40.38 201.71 40.38 201.71 39 209.62 39 209.62 40.38 206.47 40.38"/><polygon class="cls-1" points="220.49 57.93 220.49 39.01 227.09 39.01 227.09 40.39 222.06 40.39 222.06 47.74 226.36 47.74 226.36 49.15 222.06 49.15 222.06 56.5 227.09 56.5 227.09 57.93 220.49 57.93"/><polygon class="cls-1" points="261.82 57.93 261.82 42.7 258.43 52.68 257.25 52.68 253.85 43.02 253.85 57.93 252.28 57.93 252.28 39.01 253.85 39.01 257.82 50.12 261.82 39.01 263.38 39.01 263.38 57.93 261.82 57.93"/><path class="cls-1" d="M281,40.89a2.22,2.22,0,0,0-1.72-.7,2.09,2.09,0,0,0-1.67.7c-.8.91-.89,2-.89,7.54s.08,6.69.89,7.6a2.08,2.08,0,0,0,1.67.68A2.21,2.21,0,0,0,281,56c.74-.92.9-2,.9-7.6s-.17-6.64-.9-7.54M282.16,57a3.94,3.94,0,0,1-2.84,1.1,3.85,3.85,0,0,1-2.83-1.1c-1.21-1.27-1.34-2.74-1.34-8.57s.13-7.25,1.34-8.5a3.71,3.71,0,0,1,2.83-1.14,3.79,3.79,0,0,1,2.84,1.14c1.21,1.25,1.35,2.74,1.35,8.5s-.14,7.31-1.35,8.57"/><path class="cls-1" d="M300.78,41.08a2.55,2.55,0,0,0-1.77-.7h-2.22V56.5H299a2.64,2.64,0,0,0,1.77-.63c.79-1,.88-2,.88-7.43s-.09-6.45-.88-7.36m1.12,15.75a3.79,3.79,0,0,1-2.82,1.1h-3.86V39h3.86a3.73,3.73,0,0,1,2.82,1.09c1.25,1.25,1.36,2.69,1.36,8.35s-.11,7.17-1.36,8.39"/><polygon class="cls-1" points="315 57.93 315 39.01 321.57 39.01 321.57 40.39 316.55 40.39 316.55 47.74 320.86 47.74 320.86 49.15 316.55 49.15 316.55 56.5 321.57 56.5 321.57 57.93 315 57.93"/><path class="cls-1" d="M336.88,40.39h-2.17V48h2.17c1.91,0,2.51-1.35,2.51-3.79s-.6-3.86-2.51-3.86m3,17.54-2.75-8.51h-2.41v8.51h-1.55V39h3.7c2.24,0,4,.8,4,5.24,0,2.92-.72,4.3-2.29,4.91l2.89,8.77Z"/><polygon class="cls-1" points="359.92 57.93 354.63 43.2 354.63 57.93 353.09 57.93 353.09 39.01 354.63 39.01 359.92 53.72 359.88 39.01 361.52 39.01 361.52 57.93 359.92 57.93"/><path class="cls-1" d="M379.07,40.89a2.27,2.27,0,0,0-1.71-.7,2.12,2.12,0,0,0-1.68.7c-.78.91-.9,2-.9,7.54s.12,6.69.9,7.6a2.11,2.11,0,0,0,1.68.68,2.26,2.26,0,0,0,1.71-.68c.75-.92.93-2,.93-7.6s-.18-6.64-.93-7.54M380.22,57a3.92,3.92,0,0,1-2.86,1.1,3.77,3.77,0,0,1-2.83-1.1c-1.21-1.27-1.3-2.74-1.3-8.57s.08-7.25,1.3-8.5a3.63,3.63,0,0,1,2.83-1.14,3.77,3.77,0,0,1,2.86,1.14c1.19,1.25,1.31,2.74,1.31,8.5s-.12,7.31-1.31,8.57"/><path class="cls-2" d="M.11,3.32V21.19H5.66V2.5C3.81,2.75,2,3,.11,3.32"/><path class="cls-3" d="M10.24,1.91V21.19h8.92V1q-4.47.38-8.92.91"/><path class="cls-3" d="M65.62,1V21.19h8.92V1.92c-3-.35-5.94-.65-8.92-.91"/><path class="cls-4" d="M43.53,0V21.19H62.05V.72Q52.81,0,43.53,0"/><path class="cls-4" d="M22.64.72V21.19H41.16V0Q31.89,0,22.64.72"/><path class="cls-2" d="M79.06,21.19h5.55V3.32c-1.85-.29-3.69-.57-5.55-.82Z"/></g></g></svg>